<svg width="209" height="24" viewBox="0 0 209 24" fill="none" xmlns="http://www.w3.org/2000/svg">
<path d="M0.317117 23V1.90909H13.396V4.64844H3.49929V11.0746H12.4588V13.8036H3.49929V23H0.317117ZM21.6088 23.3501C20.6065 23.3501 19.7002 23.1648 18.8901 22.794C18.08 22.4164 17.438 21.8706 16.9643 21.1566C16.4975 20.4426 16.264 19.5672 16.264 18.5305C16.264 17.638 16.4357 16.9034 16.7789 16.3267C17.1222 15.75 17.5856 15.2934 18.1692 14.957C18.7528 14.6206 19.405 14.3666 20.1259 14.195C20.8468 14.0233 21.5814 13.8929 22.3297 13.8036C23.2772 13.6938 24.0461 13.6045 24.6365 13.5359C25.227 13.4603 25.6561 13.3402 25.9238 13.1754C26.1916 13.0107 26.3255 12.7429 26.3255 12.3722V12.3001C26.3255 11.4007 26.0714 10.7038 25.5634 10.2095C25.0622 9.7152 24.3139 9.46804 23.3184 9.46804C22.2817 9.46804 21.4647 9.69803 20.8674 10.158C20.2769 10.6112 19.8684 11.1158 19.6419 11.6719L16.748 11.0128C17.0913 10.0516 17.5925 9.2758 18.2516 8.68537C18.9176 8.08807 19.6831 7.65554 20.5481 7.38778C21.4132 7.11316 22.3229 6.97585 23.2772 6.97585C23.9088 6.97585 24.5782 7.05137 25.2853 7.20241C25.9993 7.34659 26.6653 7.61435 27.2832 8.00568C27.908 8.39702 28.4194 8.95656 28.8176 9.6843C29.2159 10.4052 29.415 11.3423 29.415 12.4957V23H26.4078V20.8374H26.2843C26.0852 21.2356 25.7865 21.6269 25.3883 22.0114C24.9901 22.3958 24.4786 22.7151 23.8539 22.9691C23.2291 23.2231 22.4808 23.3501 21.6088 23.3501ZM22.2782 20.8786C23.1296 20.8786 23.8573 20.7103 24.4615 20.3739C25.0725 20.0375 25.5359 19.5981 25.8517 19.0558C26.1744 18.5065 26.3358 17.9195 26.3358 17.2947V15.2557C26.2259 15.3655 26.0131 15.4685 25.6973 15.5646C25.3883 15.6539 25.0347 15.7328 24.6365 15.8015C24.2383 15.8633 23.8504 15.9216 23.4728 15.9766C23.0952 16.0246 22.7794 16.0658 22.5254 16.1001C21.9281 16.1757 21.3823 16.3027 20.888 16.4812C20.4005 16.6597 20.0092 16.9171 19.714 17.2536C19.4256 17.5831 19.2814 18.0225 19.2814 18.5717C19.2814 19.3338 19.5629 19.9105 20.1259 20.3018C20.6889 20.6863 21.4063 20.8786 22.2782 20.8786ZM46.4818 7.18182L40.7457 23H37.4502L31.7037 7.18182H35.0095L39.0155 19.3544H39.1803L43.176 7.18182H46.4818ZM55.5005 23.3192C54.0176 23.3192 52.7234 22.9794 51.6181 22.2997C50.5127 21.62 49.6545 20.6692 49.0435 19.4471C48.4325 18.225 48.127 16.797 48.127 15.163C48.127 13.5221 48.4325 12.0872 49.0435 10.8583C49.6545 9.62938 50.5127 8.67507 51.6181 7.99538C52.7234 7.3157 54.0176 6.97585 55.5005 6.97585C56.9835 6.97585 58.2776 7.3157 59.383 7.99538C60.4883 8.67507 61.3465 9.62938 61.9576 10.8583C62.5686 12.0872 62.8741 13.5221 62.8741 15.163C62.8741 16.797 62.5686 18.225 61.9576 19.4471C61.3465 20.6692 60.4883 21.62 59.383 22.2997C58.2776 22.9794 56.9835 23.3192 55.5005 23.3192ZM55.5108 20.7344C56.472 20.7344 57.2684 20.4804 57.9 19.9723C58.5317 19.4643 58.9985 18.788 59.3006 17.9435C59.6096 17.0991 59.764 16.1688 59.764 15.1527C59.764 14.1435 59.6096 13.2166 59.3006 12.3722C58.9985 11.5208 58.5317 10.8377 57.9 10.3228C57.2684 9.80788 56.472 9.55043 55.5108 9.55043C54.5428 9.55043 53.7395 9.80788 53.101 10.3228C52.4694 10.8377 51.9991 11.5208 51.6902 12.3722C51.3881 13.2166 51.237 14.1435 51.237 15.1527C51.237 16.1688 51.3881 17.0991 51.6902 17.9435C51.9991 18.788 52.4694 19.4643 53.101 19.9723C53.7395 20.4804 54.5428 20.7344 55.5108 20.7344ZM66.3112 23V7.18182H69.2874V9.6946H69.4521C69.7405 8.84328 70.2486 8.17389 70.9763 7.68643C71.7109 7.19212 72.5416 6.94496 73.4685 6.94496C73.6607 6.94496 73.8873 6.95182 74.1482 6.96555C74.4159 6.97928 74.6253 6.99645 74.7764 7.01705V9.96236C74.6528 9.92803 74.4331 9.89027 74.1173 9.84908C73.8015 9.80102 73.4856 9.77699 73.1698 9.77699C72.4421 9.77699 71.7933 9.93146 71.2235 10.2404C70.6605 10.5425 70.2142 10.9647 69.8847 11.5071C69.5551 12.0426 69.3904 12.6536 69.3904 13.3402V23H66.3112ZM77.4411 23V7.18182H80.5202V23H77.4411ZM78.9961 4.74112C78.4606 4.74112 78.0006 4.56262 77.6161 4.20561C77.2385 3.84174 77.0497 3.40921 77.0497 2.90802C77.0497 2.39998 77.2385 1.96745 77.6161 1.61044C78.0006 1.24657 78.4606 1.06463 78.9961 1.06463C79.5316 1.06463 79.9882 1.24657 80.3658 1.61044C80.7502 1.96745 80.9425 2.39998 80.9425 2.90802C80.9425 3.40921 80.7502 3.84174 80.3658 4.20561C79.9882 4.56262 79.5316 4.74112 78.9961 4.74112ZM92.0466 7.18182V9.65341H83.4063V7.18182H92.0466ZM85.7235 3.39205H88.8026V18.3555C88.8026 18.9528 88.8919 19.4025 89.0704 19.7045C89.2489 19.9998 89.4789 20.2023 89.7604 20.3121C90.0487 20.4151 90.3611 20.4666 90.6975 20.4666C90.9447 20.4666 91.161 20.4495 91.3463 20.4151C91.5317 20.3808 91.6759 20.3533 91.7789 20.3327L92.335 22.8764C92.1565 22.9451 91.9024 23.0137 91.5729 23.0824C91.2433 23.1579 90.8314 23.1991 90.3371 23.206C89.527 23.2197 88.7718 23.0755 88.0715 22.7734C87.3712 22.4714 86.8048 22.0045 86.3722 21.3729C85.9397 20.7412 85.7235 19.9483 85.7235 18.994V3.39205ZM100.056 23.3501C99.0537 23.3501 98.1475 23.1648 97.3374 22.794C96.5272 22.4164 95.8853 21.8706 95.4116 21.1566C94.9447 20.4426 94.7113 19.5672 94.7113 18.5305C94.7113 17.638 94.8829 16.9034 95.2262 16.3267C95.5695 15.75 96.0329 15.2934 96.6165 14.957C97.2 14.6206 97.8523 14.3666 98.5732 14.195C99.294 14.0233 100.029 13.8929 100.777 13.8036C101.724 13.6938 102.493 13.6045 103.084 13.5359C103.674 13.4603 104.103 13.3402 104.371 13.1754C104.639 13.0107 104.773 12.7429 104.773 12.3722V12.3001C104.773 11.4007 104.519 10.7038 104.011 10.2095C103.509 9.7152 102.761 9.46804 101.766 9.46804C100.729 9.46804 99.9119 9.69803 99.3146 10.158C98.7242 10.6112 98.3157 11.1158 98.0891 11.6719L95.1953 11.0128C95.5386 10.0516 96.0398 9.2758 96.6989 8.68537C97.3648 8.08807 98.1303 7.65554 98.9954 7.38778C99.8604 7.11316 100.77 6.97585 101.724 6.97585C102.356 6.97585 103.025 7.05137 103.733 7.20241C104.447 7.34659 105.113 7.61435 105.73 8.00568C106.355 8.39702 106.867 8.95656 107.265 9.6843C107.663 10.4052 107.862 11.3423 107.862 12.4957V23H104.855V20.8374H104.732C104.532 21.2356 104.234 21.6269 103.836 22.0114C103.437 22.3958 102.926 22.7151 102.301 22.9691C101.676 23.2231 100.928 23.3501 100.056 23.3501ZM100.725 20.8786C101.577 20.8786 102.305 20.7103 102.909 20.3739C103.52 20.0375 103.983 19.5981 104.299 19.0558C104.622 18.5065 104.783 17.9195 104.783 17.2947V15.2557C104.673 15.3655 104.46 15.4685 104.145 15.5646C103.836 15.6539 103.482 15.7328 103.084 15.8015C102.686 15.8633 102.298 15.9216 101.92 15.9766C101.542 16.0246 101.227 16.0658 100.973 16.1001C100.375 16.1757 99.8295 16.3027 99.3352 16.4812C98.8478 16.6597 98.4564 16.9171 98.1612 17.2536C97.8729 17.5831 97.7287 18.0225 97.7287 18.5717C97.7287 19.3338 98.0102 19.9105 98.5732 20.3018C99.1361 20.6863 99.8536 20.8786 100.725 20.8786Z" fill="#E9E8E8"/>
<path d="M111.974 23V1.90909H125.485V5.11186H115.794V10.8377H124.558V14.0405H115.794V23H111.974ZM133.211 23.3192C132.209 23.3192 131.306 23.1407 130.503 22.7837C129.707 22.4199 129.075 21.8844 128.608 21.1772C128.148 20.4701 127.918 19.5981 127.918 18.5614C127.918 17.6689 128.083 16.9309 128.412 16.3473C128.742 15.7637 129.192 15.2969 129.762 14.9467C130.331 14.5966 130.973 14.3323 131.687 14.1538C132.408 13.9684 133.153 13.8345 133.922 13.7521C134.849 13.656 135.601 13.5702 136.177 13.4947C136.754 13.4123 137.173 13.2887 137.434 13.1239C137.702 12.9523 137.835 12.688 137.835 12.331V12.2692C137.835 11.4934 137.605 10.8926 137.145 10.467C136.685 10.0413 136.023 9.82848 135.158 9.82848C134.245 9.82848 133.52 10.0276 132.985 10.4258C132.456 10.824 132.099 11.2943 131.914 11.8366L128.433 11.3423C128.708 10.3812 129.161 9.57789 129.792 8.93253C130.424 8.2803 131.196 7.79285 132.11 7.47017C133.023 7.14062 134.032 6.97585 135.137 6.97585C135.899 6.97585 136.658 7.0651 137.413 7.24361C138.168 7.42211 138.858 7.71733 139.483 8.12926C140.108 8.53433 140.609 9.087 140.987 9.78729C141.371 10.4876 141.563 11.3629 141.563 12.4134V23H137.98V20.8271H137.856C137.629 21.2665 137.31 21.6784 136.898 22.0629C136.493 22.4405 135.982 22.746 135.364 22.9794C134.753 23.206 134.035 23.3192 133.211 23.3192ZM134.18 20.5799C134.928 20.5799 135.577 20.4323 136.126 20.1371C136.675 19.835 137.097 19.4368 137.393 18.9425C137.695 18.4482 137.846 17.9092 137.846 17.3256V15.4616C137.729 15.5578 137.53 15.647 137.248 15.7294C136.974 15.8118 136.665 15.8839 136.322 15.9457C135.978 16.0075 135.638 16.0624 135.302 16.1104C134.966 16.1585 134.674 16.1997 134.427 16.234C133.871 16.3095 133.373 16.4331 132.933 16.6048C132.494 16.7764 132.147 17.0167 131.893 17.3256C131.639 17.6277 131.512 18.0191 131.512 18.4996C131.512 19.1862 131.763 19.7045 132.264 20.0547C132.765 20.4048 133.404 20.5799 134.18 20.5799ZM152.212 23.3089C150.633 23.3089 149.277 22.9622 148.144 22.2688C147.018 21.5754 146.15 20.6177 145.539 19.3956C144.934 18.1667 144.632 16.7524 144.632 15.1527C144.632 13.5462 144.941 12.1284 145.559 10.8995C146.177 9.66371 147.049 8.70253 148.175 8.01598C149.308 7.32256 150.646 6.97585 152.191 6.97585C153.475 6.97585 154.611 7.21271 155.6 7.68643C156.595 8.15329 157.388 8.81581 157.979 9.67401C158.569 10.5253 158.906 11.5208 158.988 12.6605H155.425C155.281 11.8984 154.937 11.2634 154.395 10.7553C153.86 10.2404 153.142 9.98295 152.243 9.98295C151.481 9.98295 150.811 10.1889 150.235 10.6009C149.658 11.0059 149.208 11.5895 148.885 12.3516C148.57 13.1136 148.412 14.0268 148.412 15.0909C148.412 16.1688 148.57 17.0956 148.885 17.8714C149.201 18.6404 149.644 19.2343 150.214 19.6531C150.791 20.065 151.467 20.271 152.243 20.271C152.792 20.271 153.283 20.168 153.715 19.962C154.155 19.7492 154.522 19.4437 154.817 19.0455C155.113 18.6473 155.315 18.1632 155.425 17.5934H158.988C158.899 18.7125 158.569 19.7045 157.999 20.5696C157.43 21.4278 156.654 22.1006 155.672 22.5881C154.69 23.0687 153.537 23.3089 152.212 23.3089ZM162.049 23V7.18182H165.777V23H162.049ZM163.924 4.93679C163.333 4.93679 162.825 4.74112 162.399 4.34979C161.974 3.95159 161.761 3.47443 161.761 2.91832C161.761 2.35535 161.974 1.8782 162.399 1.48686C162.825 1.08866 163.333 0.889559 163.924 0.889559C164.521 0.889559 165.029 1.08866 165.448 1.48686C165.873 1.8782 166.086 2.35535 166.086 2.91832C166.086 3.47443 165.873 3.95159 165.448 4.34979C165.029 4.74112 164.521 4.93679 163.924 4.93679ZM173.339 1.90909V23H169.611V1.90909H173.339ZM177.172 23V7.18182H180.9V23H177.172ZM179.047 4.93679C178.456 4.93679 177.948 4.74112 177.522 4.34979C177.097 3.95159 176.884 3.47443 176.884 2.91832C176.884 2.35535 177.097 1.8782 177.522 1.48686C177.948 1.08866 178.456 0.889559 179.047 0.889559C179.644 0.889559 180.152 1.08866 180.571 1.48686C180.996 1.8782 181.209 2.35535 181.209 2.91832C181.209 3.47443 180.996 3.95159 180.571 4.34979C180.152 4.74112 179.644 4.93679 179.047 4.93679ZM192.633 7.18182V10.0653H183.539V7.18182H192.633ZM185.784 3.39205H189.512V18.2422C189.512 18.7434 189.588 19.1278 189.739 19.3956C189.897 19.6565 190.103 19.835 190.357 19.9311C190.611 20.0272 190.892 20.0753 191.201 20.0753C191.435 20.0753 191.647 20.0581 191.84 20.0238C192.039 19.9895 192.19 19.9586 192.293 19.9311L192.921 22.8455C192.722 22.9142 192.437 22.9897 192.066 23.0721C191.702 23.1545 191.256 23.2025 190.727 23.2163C189.794 23.2437 188.953 23.103 188.204 22.794C187.456 22.4782 186.862 21.9908 186.423 21.3317C185.99 20.6726 185.777 19.8487 185.784 18.8601V3.39205ZM200.302 23.3192C199.3 23.3192 198.397 23.1407 197.594 22.7837C196.797 22.4199 196.166 21.8844 195.699 21.1772C195.239 20.4701 195.009 19.5981 195.009 18.5614C195.009 17.6689 195.174 16.9309 195.503 16.3473C195.833 15.7637 196.283 15.2969 196.852 14.9467C197.422 14.5966 198.064 14.3323 198.778 14.1538C199.499 13.9684 200.244 13.8345 201.013 13.7521C201.94 13.656 202.691 13.5702 203.268 13.4947C203.845 13.4123 204.264 13.2887 204.525 13.1239C204.792 12.9523 204.926 12.688 204.926 12.331V12.2692C204.926 11.4934 204.696 10.8926 204.236 10.467C203.776 10.0413 203.114 9.82848 202.249 9.82848C201.336 9.82848 200.611 10.0276 200.076 10.4258C199.547 10.824 199.19 11.2943 199.005 11.8366L195.524 11.3423C195.799 10.3812 196.252 9.57789 196.883 8.93253C197.515 8.2803 198.287 7.79285 199.2 7.47017C200.113 7.14062 201.123 6.97585 202.228 6.97585C202.99 6.97585 203.749 7.0651 204.504 7.24361C205.259 7.42211 205.949 7.71733 206.574 8.12926C207.199 8.53433 207.7 9.087 208.078 9.78729C208.462 10.4876 208.654 11.3629 208.654 12.4134V23H205.07V20.8271H204.947C204.72 21.2665 204.401 21.6784 203.989 22.0629C203.584 22.4405 203.073 22.746 202.455 22.9794C201.844 23.206 201.126 23.3192 200.302 23.3192ZM201.27 20.5799C202.019 20.5799 202.667 20.4323 203.217 20.1371C203.766 19.835 204.188 19.4368 204.483 18.9425C204.785 18.4482 204.937 17.9092 204.937 17.3256V15.4616C204.82 15.5578 204.621 15.647 204.339 15.7294C204.065 15.8118 203.756 15.8839 203.412 15.9457C203.069 16.0075 202.729 16.0624 202.393 16.1104C202.056 16.1585 201.765 16.1997 201.517 16.234C200.961 16.3095 200.464 16.4331 200.024 16.6048C199.585 16.7764 199.238 17.0167 198.984 17.3256C198.73 17.6277 198.603 18.0191 198.603 18.4996C198.603 19.1862 198.854 19.7045 199.355 20.0547C199.856 20.4048 200.495 20.5799 201.27 20.5799Z" fill="#FDA916"/>
</svg>
