<svg width="60" height="60" viewBox="0 0 60 60" fill="none" xmlns="http://www.w3.org/2000/svg">
<g clip-path="url(#clip0_127_638)">
<path d="M29.9999 0C46.5694 0 60 13.4325 60 30.0001C60 46.5677 46.5694 60 29.9999 60C13.4304 60 0 46.5675 0 30.0001C0 13.4327 13.4306 0 29.9999 0Z" fill="#252627"/>
<path d="M16.9049 41.2199H22.5225V22.4961H16.9049V41.2199ZM38.79 21.8475C36.0637 21.8475 33.6244 22.8432 31.8939 25.0407V22.4345H26.2557V41.2201H31.8939V31.0614C31.8939 28.9144 33.8608 26.82 36.3245 26.82C38.7882 26.82 39.3958 28.9144 39.3958 31.0088V41.2183H45.0133V30.5907C45.0131 23.2087 41.5182 21.8475 38.79 21.8475ZM19.6875 20.625C21.24 20.625 22.5001 19.3649 22.5001 17.8124C22.5001 16.2599 21.24 15 19.6875 15C18.1349 15 16.8749 16.2601 16.8749 17.8126C16.8749 19.3651 18.1349 20.625 19.6875 20.625Z" fill="#E9E8E8"/>
</g>
<defs>
<clipPath id="clip0_127_638">
<rect width="60" height="60" fill="white"/>
</clipPath>
</defs>
</svg>
