<svg width="60" height="60" viewBox="0 0 60 60" fill="none" xmlns="http://www.w3.org/2000/svg">
<g clip-path="url(#clip0_127_632)">
<circle cx="30" cy="30" r="30" fill="#E9E8E8"/>
<path d="M30 0C13.4325 0 0 13.4325 0 30C0 46.5675 13.4325 60 30 60C46.5675 60 60 46.5675 60 30C60 13.4325 46.5675 0 30 0ZM44.735 20.5525L39.81 43.7525C39.4475 45.3975 38.4675 45.7975 37.1 45.0225L29.6 39.4975L25.985 42.9825C25.635 43.4325 25.0925 43.72 24.485 43.72C24.48 43.72 24.4775 43.72 24.4725 43.72L25.005 36.085L38.905 23.53C39.505 22.9975 38.77 22.695 37.9725 23.2275L20.8 34.0425L13.4 31.7325C11.8 31.225 11.755 30.1325 13.7375 29.3475L42.6525 18.2025C43.9975 17.7125 45.1675 18.5225 44.7325 20.555L44.735 20.5525Z" fill="#252627"/>
</g>
<defs>
<clipPath id="clip0_127_632">
<rect width="60" height="60" fill="white"/>
</clipPath>
</defs>
</svg>
