<svg width="195" height="22" viewBox="0 0 195 22" fill="none" xmlns="http://www.w3.org/2000/svg">
<path d="M0.157315 21V1.36364H12.3342V3.91406H3.12003V9.89702H11.4616V12.4379H3.12003V21H0.157315ZM19.9806 21.326C19.0474 21.326 18.2037 21.1534 17.4494 20.8082C16.6951 20.4567 16.0975 19.9485 15.6564 19.2837C15.2218 18.619 15.0044 17.804 15.0044 16.8388C15.0044 16.0078 15.1642 15.3239 15.4838 14.7869C15.8034 14.25 16.2349 13.8249 16.7782 13.5117C17.3216 13.1985 17.9288 12.962 18.6 12.8022C19.2711 12.6424 19.9551 12.521 20.6518 12.4379C21.5339 12.3356 22.2498 12.2525 22.7995 12.1886C23.3493 12.1183 23.7488 12.0064 23.998 11.853C24.2473 11.6996 24.372 11.4503 24.372 11.1051V11.038C24.372 10.2006 24.1355 9.55185 23.6625 9.09162C23.1958 8.63139 22.4991 8.40128 21.5723 8.40128C20.6071 8.40128 19.8464 8.61541 19.2903 9.04368C18.7406 9.46555 18.3603 9.93537 18.1493 10.4531L15.4551 9.83949C15.7747 8.9446 16.2413 8.2223 16.8549 7.67258C17.475 7.11648 18.1877 6.71378 18.9931 6.46449C19.7985 6.20881 20.6454 6.08097 21.5339 6.08097C22.122 6.08097 22.7452 6.15128 23.4036 6.2919C24.0684 6.42614 24.6884 6.67543 25.2637 7.03977C25.8453 7.40412 26.3216 7.92507 26.6923 8.60263C27.063 9.27379 27.2484 10.1463 27.2484 11.2202V21H24.4487V18.9865H24.3336C24.1483 19.3572 23.8702 19.7216 23.4995 20.0795C23.1287 20.4375 22.6525 20.7347 22.0708 20.9712C21.4892 21.2077 20.7924 21.326 19.9806 21.326ZM20.6039 19.0249C21.3965 19.0249 22.074 18.8683 22.6365 18.555C23.2054 18.2418 23.6369 17.8327 23.9309 17.3278C24.2314 16.8164 24.3816 16.2699 24.3816 15.6882V13.7898C24.2793 13.892 24.0811 13.9879 23.7871 14.0774C23.4995 14.1605 23.1703 14.234 22.7995 14.2979C22.4288 14.3555 22.0676 14.4098 21.7161 14.4609C21.3645 14.5057 21.0705 14.544 20.834 14.576C20.2779 14.6463 19.7697 14.7646 19.3095 14.9308C18.8556 15.0969 18.4913 15.3366 18.2164 15.6499C17.948 15.9567 17.8137 16.3658 17.8137 16.8771C17.8137 17.5866 18.0758 18.1236 18.6 18.4879C19.1241 18.8459 19.7921 19.0249 20.6039 19.0249ZM43.1382 6.27273L37.7977 21H34.7295L29.3794 6.27273H32.4571L36.1869 17.6058H36.3403L40.0605 6.27273H43.1382ZM51.535 21.2972C50.1543 21.2972 48.9494 20.9808 47.9203 20.348C46.8912 19.7152 46.0922 18.8299 45.5233 17.6921C44.9544 16.5543 44.6699 15.2248 44.6699 13.7035C44.6699 12.1758 44.9544 10.8398 45.5233 9.69567C46.0922 8.55149 46.8912 7.663 47.9203 7.03018C48.9494 6.39737 50.1543 6.08097 51.535 6.08097C52.9157 6.08097 54.1206 6.39737 55.1497 7.03018C56.1788 7.663 56.9778 8.55149 57.5467 9.69567C58.1156 10.8398 58.4 12.1758 58.4 13.7035C58.4 15.2248 58.1156 16.5543 57.5467 17.6921C56.9778 18.8299 56.1788 19.7152 55.1497 20.348C54.1206 20.9808 52.9157 21.2972 51.535 21.2972ZM51.5446 18.8906C52.4395 18.8906 53.1809 18.6541 53.769 18.1811C54.3571 17.7081 54.7917 17.0785 55.073 16.2923C55.3606 15.506 55.5044 14.6399 55.5044 13.6939C55.5044 12.7543 55.3606 11.8913 55.073 11.1051C54.7917 10.3125 54.3571 9.67649 53.769 9.19709C53.1809 8.71768 52.4395 8.47798 51.5446 8.47798C50.6433 8.47798 49.8954 8.71768 49.301 9.19709C48.7129 9.67649 48.275 10.3125 47.9874 11.1051C47.7061 11.8913 47.5655 12.7543 47.5655 13.6939C47.5655 14.6399 47.7061 15.506 47.9874 16.2923C48.275 17.0785 48.7129 17.7081 49.301 18.1811C49.8954 18.6541 50.6433 18.8906 51.5446 18.8906ZM61.6001 21V6.27273H64.371V8.61222H64.5244C64.7929 7.8196 65.2659 7.19638 65.9434 6.74254C66.6274 6.28231 67.4008 6.0522 68.2638 6.0522C68.4427 6.0522 68.6537 6.05859 68.8966 6.07138C69.1459 6.08416 69.3408 6.10014 69.4814 6.11932V8.86151C69.3664 8.82955 69.1618 8.79439 68.8678 8.75604C68.5738 8.71129 68.2797 8.68892 67.9857 8.68892C67.3082 8.68892 66.7041 8.83274 66.1736 9.12038C65.6494 9.40163 65.2339 9.79474 64.9271 10.2997C64.6203 10.7983 64.4669 11.3672 64.4669 12.0064V21H61.6001ZM71.9624 21V6.27273H74.8292V21H71.9624ZM73.4102 4.00035C72.9116 4.00035 72.4833 3.83416 72.1254 3.50177C71.7738 3.163 71.598 2.7603 71.598 2.29368C71.598 1.82067 71.7738 1.41797 72.1254 1.08558C72.4833 0.746803 72.9116 0.577414 73.4102 0.577414C73.9087 0.577414 74.3338 0.746803 74.6854 1.08558C75.0433 1.41797 75.2223 1.82067 75.2223 2.29368C75.2223 2.7603 75.0433 3.163 74.6854 3.50177C74.3338 3.83416 73.9087 4.00035 73.4102 4.00035ZM85.5606 6.27273V8.57386H77.5162V6.27273H85.5606ZM79.6736 2.74432H82.5404V16.6758C82.5404 17.2319 82.6235 17.6506 82.7897 17.9318C82.9559 18.2067 83.17 18.3952 83.4321 18.4975C83.7006 18.5934 83.9914 18.6413 84.3046 18.6413C84.5347 18.6413 84.7361 18.6254 84.9086 18.5934C85.0812 18.5614 85.2155 18.5359 85.3113 18.5167L85.8291 20.8849C85.6629 20.9489 85.4264 21.0128 85.1196 21.0767C84.8128 21.147 84.4292 21.1854 83.969 21.1918C83.2148 21.2045 82.5116 21.0703 81.8596 20.7891C81.2077 20.5078 80.6803 20.0732 80.2776 19.4851C79.8749 18.897 79.6736 18.1587 79.6736 17.2702V2.74432ZM93.0178 21.326C92.0845 21.326 91.2408 21.1534 90.4865 20.8082C89.7322 20.4567 89.1346 19.9485 88.6935 19.2837C88.2589 18.619 88.0415 17.804 88.0415 16.8388C88.0415 16.0078 88.2013 15.3239 88.521 14.7869C88.8406 14.25 89.272 13.8249 89.8153 13.5117C90.3587 13.1985 90.9659 12.962 91.6371 12.8022C92.3082 12.6424 92.9922 12.521 93.6889 12.4379C94.571 12.3356 95.2869 12.2525 95.8366 12.1886C96.3864 12.1183 96.7859 12.0064 97.0352 11.853C97.2844 11.6996 97.4091 11.4503 97.4091 11.1051V11.038C97.4091 10.2006 97.1726 9.55185 96.6996 9.09162C96.233 8.63139 95.5362 8.40128 94.6094 8.40128C93.6442 8.40128 92.8835 8.61541 92.3274 9.04368C91.7777 9.46555 91.3974 9.93537 91.1864 10.4531L88.4922 9.83949C88.8118 8.9446 89.2784 8.2223 89.892 7.67258C90.5121 7.11648 91.2248 6.71378 92.0302 6.46449C92.8356 6.20881 93.6825 6.08097 94.571 6.08097C95.1591 6.08097 95.7823 6.15128 96.4407 6.2919C97.1055 6.42614 97.7255 6.67543 98.3008 7.03977C98.8825 7.40412 99.3587 7.92507 99.7294 8.60263C100.1 9.27379 100.286 10.1463 100.286 11.2202V21H97.4858V18.9865H97.3707C97.1854 19.3572 96.9073 19.7216 96.5366 20.0795C96.1658 20.4375 95.6896 20.7347 95.108 20.9712C94.5263 21.2077 93.8295 21.326 93.0178 21.326ZM93.641 19.0249C94.4336 19.0249 95.1112 18.8683 95.6737 18.555C96.2425 18.2418 96.674 17.8327 96.968 17.3278C97.2685 16.8164 97.4187 16.2699 97.4187 15.6882V13.7898C97.3164 13.892 97.1183 13.9879 96.8242 14.0774C96.5366 14.1605 96.2074 14.234 95.8366 14.2979C95.4659 14.3555 95.1048 14.4098 94.7532 14.4609C94.4016 14.5057 94.1076 14.544 93.8711 14.576C93.315 14.6463 92.8068 14.7646 92.3466 14.9308C91.8928 15.0969 91.5284 15.3366 91.2536 15.6499C90.9851 15.9567 90.8509 16.3658 90.8509 16.8771C90.8509 17.5866 91.1129 18.1236 91.6371 18.4879C92.1612 18.8459 92.8292 19.0249 93.641 19.0249Z" fill="#E9E8E8"/>
<path d="M104.114 21V1.36364H116.693V4.34553H107.671V9.67649H115.83V12.6584H107.671V21H104.114ZM123.887 21.2972C122.953 21.2972 122.113 21.131 121.365 20.7987C120.623 20.4599 120.035 19.9613 119.601 19.3029C119.172 18.6445 118.958 17.8327 118.958 16.8675C118.958 16.0366 119.112 15.3494 119.419 14.8061C119.725 14.2628 120.144 13.8281 120.675 13.5021C121.205 13.1761 121.803 12.93 122.468 12.7638C123.139 12.5913 123.832 12.4666 124.548 12.3899C125.411 12.3004 126.111 12.2205 126.648 12.1502C127.185 12.0735 127.575 11.9585 127.818 11.805C128.067 11.6452 128.192 11.3991 128.192 11.0668V11.0092C128.192 10.2869 127.977 9.72763 127.549 9.33132C127.121 8.93501 126.504 8.73686 125.699 8.73686C124.849 8.73686 124.174 8.92223 123.676 9.29297C123.183 9.66371 122.851 10.1016 122.678 10.6065L119.438 10.1463C119.693 9.25142 120.115 8.50355 120.703 7.9027C121.291 7.29545 122.01 6.84162 122.861 6.54119C123.711 6.23438 124.65 6.08097 125.68 6.08097C126.389 6.08097 127.095 6.16406 127.798 6.33026C128.502 6.49645 129.144 6.77131 129.726 7.15483C130.307 7.53196 130.774 8.04652 131.126 8.69851C131.483 9.3505 131.662 10.1655 131.662 11.1435V21H128.326V18.9769H128.211C128 19.386 127.703 19.7695 127.319 20.1275C126.942 20.479 126.466 20.7635 125.89 20.9808C125.322 21.1918 124.654 21.2972 123.887 21.2972ZM124.788 18.7468C125.485 18.7468 126.089 18.6094 126.6 18.3345C127.111 18.0533 127.504 17.6825 127.779 17.2223C128.061 16.7621 128.201 16.2603 128.201 15.717V13.9815C128.093 14.071 127.907 14.1541 127.645 14.2308C127.389 14.3075 127.102 14.3746 126.782 14.4322C126.463 14.4897 126.146 14.5408 125.833 14.5856C125.52 14.6303 125.248 14.6687 125.018 14.7006C124.5 14.771 124.037 14.886 123.628 15.0458C123.219 15.2056 122.896 15.4293 122.659 15.717C122.423 15.9982 122.305 16.3626 122.305 16.81C122.305 17.4492 122.538 17.9318 123.004 18.2578C123.471 18.5838 124.066 18.7468 124.788 18.7468ZM141.577 21.2876C140.106 21.2876 138.844 20.9648 137.789 20.3192C136.741 19.6737 135.932 18.782 135.363 17.6442C134.801 16.5 134.52 15.1832 134.52 13.6939C134.52 12.1982 134.807 10.8782 135.383 9.73402C135.958 8.58345 136.77 7.68856 137.818 7.04936C138.873 6.40376 140.119 6.08097 141.557 6.08097C142.753 6.08097 143.811 6.30149 144.731 6.74254C145.658 7.1772 146.396 7.79403 146.946 8.59304C147.496 9.38565 147.809 10.3125 147.885 11.3736H144.568C144.434 10.6641 144.114 10.0728 143.609 9.59979C143.111 9.12038 142.443 8.88068 141.605 8.88068C140.896 8.88068 140.273 9.07244 139.736 9.45597C139.199 9.8331 138.78 10.3764 138.48 11.0859C138.186 11.7955 138.039 12.6456 138.039 13.6364C138.039 14.6399 138.186 15.5028 138.48 16.2251C138.774 16.9411 139.186 17.494 139.716 17.8839C140.253 18.2674 140.883 18.4592 141.605 18.4592C142.117 18.4592 142.574 18.3633 142.976 18.1715C143.385 17.9734 143.727 17.6889 144.002 17.3182C144.277 16.9474 144.466 16.4968 144.568 15.9663H147.885C147.802 17.0082 147.496 17.9318 146.965 18.7372C146.434 19.5362 145.712 20.1626 144.798 20.6165C143.884 21.0639 142.81 21.2876 141.577 21.2876ZM150.736 21V6.27273H154.206V21H150.736ZM152.481 4.18253C151.931 4.18253 151.458 4.00036 151.062 3.63601C150.665 3.26527 150.467 2.82102 150.467 2.30327C150.467 1.77912 150.665 1.33487 151.062 0.970524C151.458 0.599786 151.931 0.414417 152.481 0.414417C153.037 0.414417 153.51 0.599786 153.9 0.970524C154.296 1.33487 154.494 1.77912 154.494 2.30327C154.494 2.82102 154.296 3.26527 153.9 3.63601C153.51 4.00036 153.037 4.18253 152.481 4.18253ZM161.246 1.36364V21H157.776V1.36364H161.246ZM164.816 21V6.27273H168.286V21H164.816ZM166.561 4.18253C166.011 4.18253 165.538 4.00036 165.142 3.63601C164.745 3.26527 164.547 2.82102 164.547 2.30327C164.547 1.77912 164.745 1.33487 165.142 0.970524C165.538 0.599786 166.011 0.414417 166.561 0.414417C167.117 0.414417 167.59 0.599786 167.98 0.970524C168.376 1.33487 168.574 1.77912 168.574 2.30327C168.574 2.82102 168.376 3.26527 167.98 3.63601C167.59 4.00036 167.117 4.18253 166.561 4.18253ZM179.21 6.27273V8.95739H170.743V6.27273H179.21ZM172.834 2.74432H176.305V16.5703C176.305 17.0369 176.375 17.3949 176.515 17.6442C176.662 17.8871 176.854 18.0533 177.091 18.1428C177.327 18.2322 177.589 18.277 177.877 18.277C178.094 18.277 178.292 18.261 178.471 18.229C178.657 18.1971 178.797 18.1683 178.893 18.1428L179.478 20.8562C179.293 20.9201 179.028 20.9904 178.682 21.0671C178.344 21.1438 177.928 21.1886 177.436 21.2013C176.567 21.2269 175.784 21.0959 175.087 20.8082C174.39 20.5142 173.837 20.0604 173.428 19.4467C173.025 18.8331 172.827 18.0661 172.834 17.1456V2.74432ZM186.35 21.2972C185.417 21.2972 184.577 21.131 183.829 20.7987C183.087 20.4599 182.499 19.9613 182.065 19.3029C181.636 18.6445 181.422 17.8327 181.422 16.8675C181.422 16.0366 181.576 15.3494 181.882 14.8061C182.189 14.2628 182.608 13.8281 183.138 13.5021C183.669 13.1761 184.267 12.93 184.931 12.7638C185.603 12.5913 186.296 12.4666 187.012 12.3899C187.875 12.3004 188.575 12.2205 189.112 12.1502C189.649 12.0735 190.039 11.9585 190.282 11.805C190.531 11.6452 190.655 11.3991 190.655 11.0668V11.0092C190.655 10.2869 190.441 9.72763 190.013 9.33132C189.585 8.93501 188.968 8.73686 188.163 8.73686C187.312 8.73686 186.638 8.92223 186.139 9.29297C185.647 9.66371 185.315 10.1016 185.142 10.6065L181.902 10.1463C182.157 9.25142 182.579 8.50355 183.167 7.9027C183.755 7.29545 184.474 6.84162 185.324 6.54119C186.175 6.23438 187.114 6.08097 188.143 6.08097C188.853 6.08097 189.559 6.16406 190.262 6.33026C190.965 6.49645 191.608 6.77131 192.19 7.15483C192.771 7.53196 193.238 8.04652 193.589 8.69851C193.947 9.3505 194.126 10.1655 194.126 11.1435V21H190.79V18.9769H190.675C190.464 19.386 190.166 19.7695 189.783 20.1275C189.406 20.479 188.93 20.7635 188.354 20.9808C187.785 21.1918 187.117 21.2972 186.35 21.2972ZM187.252 18.7468C187.948 18.7468 188.552 18.6094 189.064 18.3345C189.575 18.0533 189.968 17.6825 190.243 17.2223C190.524 16.7621 190.665 16.2603 190.665 15.717V13.9815C190.556 14.071 190.371 14.1541 190.109 14.2308C189.853 14.3075 189.566 14.3746 189.246 14.4322C188.926 14.4897 188.61 14.5408 188.297 14.5856C187.984 14.6303 187.712 14.6687 187.482 14.7006C186.964 14.771 186.501 14.886 186.092 15.0458C185.682 15.2056 185.36 15.4293 185.123 15.717C184.887 15.9982 184.768 16.3626 184.768 16.81C184.768 17.4492 185.002 17.9318 185.468 18.2578C185.935 18.5838 186.529 18.7468 187.252 18.7468Z" fill="#FDA916"/>
</svg>
