<svg width="40" height="40" viewBox="0 0 40 40" fill="none" xmlns="http://www.w3.org/2000/svg">
<g clip-path="url(#clip0_144_2)">
<circle cx="21" cy="20" r="17" fill="#E9E8E8"/>
<path d="M20 0C8.955 0 0 8.955 0 20C0 31.045 8.955 40 20 40C31.045 40 40 31.045 40 20C40 8.955 31.045 0 20 0ZM29.8233 13.7017L26.54 29.1683C26.2983 30.265 25.645 30.5317 24.7333 30.015L19.7333 26.3317L17.3233 28.655C17.09 28.955 16.7283 29.1467 16.3233 29.1467C16.32 29.1467 16.3183 29.1467 16.315 29.1467L16.67 24.0567L25.9367 15.6867C26.3367 15.3317 25.8467 15.13 25.315 15.485L13.8667 22.695L8.93333 21.155C7.86667 20.8167 7.83667 20.0883 9.15833 19.565L28.435 12.135C29.3317 11.8083 30.1117 12.3483 29.8217 13.7033L29.8233 13.7017Z" fill="#252627"/>
</g>
<defs>
<clipPath id="clip0_144_2">
<rect width="40" height="40" fill="white"/>
</clipPath>
</defs>
</svg>
