<svg width="30" height="30" viewBox="0 0 30 30" fill="none" xmlns="http://www.w3.org/2000/svg">
<path d="M22.7187 27.5C21.7396 27.5 20.901 27.151 20.2031 26.4531C19.5052 25.7552 19.1562 24.9167 19.1562 23.9375C19.1562 23.7917 19.1719 23.6198 19.2031 23.4219C19.2344 23.224 19.2813 23.0417 19.3438 22.875L9.875 17.375C9.5625 17.7292 9.17708 18.0156 8.71875 18.2344C8.26042 18.4531 7.79167 18.5625 7.3125 18.5625C6.33333 18.5625 5.49479 18.2135 4.79688 17.5156C4.09896 16.8177 3.75 15.9792 3.75 15C3.75 14 4.09896 13.1562 4.79688 12.4687C5.49479 11.7812 6.33333 11.4375 7.3125 11.4375C7.79167 11.4375 8.25 11.5312 8.6875 11.7187C9.125 11.9062 9.52083 12.1771 9.875 12.5312L19.3438 7.09375C19.2813 6.94792 19.2344 6.78125 19.2031 6.59375C19.1719 6.40625 19.1562 6.22917 19.1562 6.0625C19.1562 5.0625 19.5052 4.21875 20.2031 3.53125C20.901 2.84375 21.7396 2.5 22.7187 2.5C23.7187 2.5 24.5625 2.84375 25.25 3.53125C25.9375 4.21875 26.2812 5.0625 26.2812 6.0625C26.2812 7.04167 25.9375 7.88021 25.25 8.57812C24.5625 9.27604 23.7187 9.625 22.7187 9.625C22.2396 9.625 21.776 9.54687 21.3281 9.39062C20.8802 9.23437 20.5 8.97917 20.1875 8.625L10.7187 13.875C10.7604 14.0417 10.7969 14.2344 10.8281 14.4531C10.8594 14.6719 10.875 14.8542 10.875 15C10.875 15.1458 10.8594 15.3021 10.8281 15.4687C10.7969 15.6354 10.7604 15.8021 10.7187 15.9687L20.1875 21.3437C20.5 21.0521 20.8646 20.8177 21.2812 20.6406C21.6979 20.4635 22.1771 20.375 22.7187 20.375C23.7187 20.375 24.5625 20.7187 25.25 21.4062C25.9375 22.0937 26.2812 22.9375 26.2812 23.9375C26.2812 24.9167 25.9375 25.7552 25.25 26.4531C24.5625 27.151 23.7187 27.5 22.7187 27.5ZM22.7187 7.75C23.1979 7.75 23.599 7.58854 23.9219 7.26562C24.2448 6.94271 24.4062 6.54167 24.4062 6.0625C24.4062 5.58333 24.2448 5.18229 23.9219 4.85937C23.599 4.53646 23.1979 4.375 22.7187 4.375C22.2396 4.375 21.8385 4.53646 21.5156 4.85937C21.1927 5.18229 21.0313 5.58333 21.0313 6.0625C21.0313 6.54167 21.1927 6.94271 21.5156 7.26562C21.8385 7.58854 22.2396 7.75 22.7187 7.75V7.75ZM7.3125 16.6875C7.79167 16.6875 8.19271 16.526 8.51562 16.2031C8.83854 15.8802 9 15.4792 9 15C9 14.5208 8.83854 14.1198 8.51562 13.7969C8.19271 13.474 7.79167 13.3125 7.3125 13.3125C6.83333 13.3125 6.43229 13.474 6.10937 13.7969C5.78646 14.1198 5.625 14.5208 5.625 15C5.625 15.4792 5.78646 15.8802 6.10937 16.2031C6.43229 16.526 6.83333 16.6875 7.3125 16.6875V16.6875ZM22.7187 25.625C23.1979 25.625 23.599 25.4635 23.9219 25.1406C24.2448 24.8177 24.4062 24.4167 24.4062 23.9375C24.4062 23.4583 24.2448 23.0573 23.9219 22.7344C23.599 22.4115 23.1979 22.25 22.7187 22.25C22.2396 22.25 21.8385 22.4115 21.5156 22.7344C21.1927 23.0573 21.0313 23.4583 21.0313 23.9375C21.0313 24.4167 21.1927 24.8177 21.5156 25.1406C21.8385 25.4635 22.2396 25.625 22.7187 25.625Z" fill="#E9E8E8"/>
</svg>
