<svg width="40" height="40" viewBox="0 0 40 40" fill="none" xmlns="http://www.w3.org/2000/svg">
<g clip-path="url(#clip0_144_8)">
<path d="M19.9999 0C31.0462 0 40 8.95499 40 20.0001C40 31.0451 31.0462 40 19.9999 40C8.95362 40 0 31.045 0 20.0001C0 8.95513 8.95376 0 19.9999 0Z" fill="#252627"/>
<path d="M11.27 27.48H15.015V14.9974H11.27V27.48ZM25.86 14.5651C24.0425 14.5651 22.4163 15.2288 21.2626 16.6939V14.9564H17.5038V27.4801H21.2626V20.7076C21.2626 19.2763 22.5739 17.8801 24.2163 17.8801C25.8588 17.8801 26.2639 19.2763 26.2639 20.6726V27.4789H30.0089V20.3939C30.0088 15.4725 27.6788 14.5651 25.86 14.5651ZM13.125 13.75C14.16 13.75 15.0001 12.91 15.0001 11.875C15.0001 10.8399 14.16 10 13.125 10C12.09 10 11.2499 10.8401 11.2499 11.8751C11.2499 12.9101 12.09 13.75 13.125 13.75Z" fill="#E9E8E8"/>
</g>
<defs>
<clipPath id="clip0_144_8">
<rect width="40" height="40" fill="white"/>
</clipPath>
</defs>
</svg>
