<svg width="60" height="58" viewBox="0 0 60 58" fill="none" xmlns="http://www.w3.org/2000/svg">
<g clip-path="url(#clip0_127_635)">
<path d="M53.5 32.3834C53.5 47.065 47.5685 58.9667 31 58.9667C14.4315 58.9667 4.5 47.065 4.5 32.3834C4.5 17.7018 14.4315 5.80005 31 5.80005C47.5685 5.80005 53.5 17.7018 53.5 32.3834Z" fill="#E9E8E8"/>
<path d="M30 0C13.125 0 0 13.0968 0 29.9355C0 49.5806 17.8125 58 20.625 58C22.5 58 22.5 57.0645 22.5 56.129V51.4516C15.9375 53.3226 13.125 49.5806 12.1875 46.7742C12.1875 46.7742 12.1875 45.8387 10.3125 43.9677C9.375 43.0323 5.625 41.1613 9.375 41.1613C12.1875 41.1613 14.0625 44.9032 14.0625 44.9032C16.875 48.6452 20.625 47.7097 22.5 46.7742C22.5 44.9032 24.375 43.0323 24.375 43.0323C16.875 42.0968 11.25 39.2903 11.25 29C11.25 25.2581 12.1875 22.4516 14.0625 20.5806C14.0625 20.5806 12.1875 16.8387 14.0625 12.1613C14.0625 12.1613 18.75 12.1613 22.5 15.9032C25.3125 14.0323 34.6875 14.0323 37.5 15.9032C41.25 12.1613 45.9375 12.1613 45.9375 12.1613C47.8125 18.7097 45.9375 20.5806 45.9375 20.5806C47.8125 22.4516 48.75 25.2581 48.75 29C48.75 39.2903 42.1875 42.0968 35.625 43.0323C36.5625 43.9677 37.5 45.8387 37.5 48.6452V56.129C37.5 57.0645 37.5 58 39.375 58C42.1875 58 60 49.5806 60 29.9355C60 13.0968 46.875 0 30 0Z" fill="#252627"/>
</g>
<defs>
<clipPath id="clip0_127_635">
<rect width="60" height="58" fill="white"/>
</clipPath>
</defs>
</svg>
