<svg width="41" height="40" viewBox="0 0 41 40" fill="none" xmlns="http://www.w3.org/2000/svg">
<g clip-path="url(#clip0_144_5)">
<path d="M36.5583 22.3333C36.5583 32.4585 32.5052 40.6666 21.1833 40.6666C9.86151 40.6666 3.07501 32.4585 3.07501 22.3333C3.07501 12.2081 9.86151 3.99998 21.1833 3.99998C32.5052 3.99998 36.5583 12.2081 36.5583 22.3333Z" fill="#E9E8E8"/>
<path d="M20.5 0C8.96875 0 0 9.03226 0 20.6452C0 34.1935 12.1719 40 14.0938 40C15.375 40 15.375 39.3548 15.375 38.7097V35.4839C10.8906 36.7742 8.96875 34.1935 8.32813 32.2581C8.32813 32.2581 8.32813 31.6129 7.04688 30.3226C6.40625 29.6774 3.84375 28.3871 6.40625 28.3871C8.32813 28.3871 9.60938 30.9677 9.60938 30.9677C11.5313 33.5484 14.0938 32.9032 15.375 32.2581C15.375 30.9677 16.6563 29.6774 16.6563 29.6774C11.5313 29.0323 7.6875 27.0968 7.6875 20C7.6875 17.4194 8.32813 15.4839 9.60938 14.1935C9.60938 14.1935 8.32813 11.6129 9.60938 8.3871C9.60938 8.3871 12.8125 8.3871 15.375 10.9677C17.2969 9.67742 23.7031 9.67742 25.625 10.9677C28.1875 8.3871 31.3906 8.3871 31.3906 8.3871C32.6719 12.9032 31.3906 14.1935 31.3906 14.1935C32.6719 15.4839 33.3125 17.4194 33.3125 20C33.3125 27.0968 28.8281 29.0323 24.3438 29.6774C24.9844 30.3226 25.625 31.6129 25.625 33.5484V38.7097C25.625 39.3548 25.625 40 26.9063 40C28.8281 40 41 34.1935 41 20.6452C41 9.03226 32.0313 0 20.5 0Z" fill="#252627"/>
</g>
<defs>
<clipPath id="clip0_144_5">
<rect width="41" height="40" fill="white"/>
</clipPath>
</defs>
</svg>
